<svg width="410" height="185" viewBox="0 0 410 185" fill="none" xmlns="http://www.w3.org/2000/svg">
<path d="M224.245 114.062V64.1187H233.295V114.062H224.245Z" fill="black"/>
<path d="M147.646 65.5002L166.78 114.062H174.24L193.582 65.5002H183.566L170.623 99.5951L157.8 65.5002H147.646Z" fill="black"/>
<path fill-rule="evenodd" clip-rule="evenodd" d="M194.933 112.473C197.65 113.993 200.69 114.752 204.052 114.752C207.413 114.752 210.43 113.993 213.101 112.473C215.818 110.907 217.959 108.812 219.525 106.187C221.091 103.516 221.874 100.546 221.874 97.2758C221.874 94.0062 221.091 91.0819 219.525 88.503C217.959 85.8781 215.818 83.8057 213.101 82.286C210.43 80.7203 207.39 79.9374 203.983 79.9374C200.667 79.9374 197.65 80.7203 194.933 82.286C192.216 83.8057 190.075 85.8781 188.509 88.503C186.943 91.0819 186.161 94.0062 186.161 97.2758C186.161 100.546 186.943 103.516 188.509 106.187C190.121 108.812 192.262 110.907 194.933 112.473ZM208.473 105.22C207.183 105.957 205.686 106.325 203.983 106.325C202.325 106.325 200.851 105.957 199.562 105.22C198.272 104.437 197.259 103.378 196.522 102.042C195.785 100.661 195.417 99.0949 195.417 97.3449C195.417 95.595 195.785 94.0522 196.522 92.7167C197.259 91.3812 198.272 90.3451 199.562 89.6082C200.851 88.8254 202.325 88.4339 203.983 88.4339C205.686 88.4339 207.183 88.8254 208.473 89.6082C209.762 90.3451 210.775 91.3812 211.512 92.7167C212.249 94.0522 212.617 95.595 212.617 97.3449C212.617 99.0949 212.249 100.661 211.512 102.042C210.821 103.378 209.808 104.437 208.473 105.22Z" fill="black"/>
<path d="M244.214 112.887C246.516 114.131 249.141 114.752 252.089 114.752C255.036 114.752 257.638 114.154 259.894 112.956C262.197 111.713 263.97 109.986 265.213 107.776C266.503 105.565 267.147 102.986 267.147 100.039V80.6973H258.098V99.8317C258.098 101.904 257.569 103.516 256.509 104.667C255.45 105.818 253.977 106.394 252.089 106.394C250.845 106.394 249.763 106.141 248.842 105.634C247.921 105.128 247.23 104.391 246.77 103.424C246.309 102.411 246.079 101.213 246.079 99.8317V80.6973H236.961V100.039C236.961 102.94 237.605 105.496 238.895 107.707C240.184 109.917 241.957 111.644 244.214 112.887Z" fill="black"/>
<path d="M270.9 114.062V80.6973H279.949V83.592C280.758 82.8017 281.679 82.1361 282.712 81.5953C284.646 80.5361 286.834 80.0065 289.274 80.0065C291.577 80.0065 293.672 80.5361 295.56 81.5953C297.143 82.4443 298.45 83.6006 299.483 85.0641C300.599 83.6397 301.962 82.5065 303.573 81.6643C305.6 80.5591 307.856 80.0065 310.343 80.0065C312.83 80.0065 315.063 80.5361 317.043 81.5953C319.024 82.6084 320.589 84.082 321.741 86.0162C322.892 87.9504 323.468 90.253 323.468 92.924V114.062H314.419V94.3746C314.419 92.4404 313.797 90.9437 312.553 89.8846C311.356 88.7793 309.859 88.2267 308.063 88.2267C306.912 88.2267 305.83 88.48 304.817 88.9865C303.85 89.4471 303.09 90.1378 302.537 91.0589C301.985 91.9799 301.708 93.0851 301.708 94.3746V114.062H292.659V94.3746C292.659 92.4404 292.037 90.9437 290.794 89.8846C289.597 88.7793 288.1 88.2267 286.304 88.2267C285.107 88.2267 284.024 88.48 283.057 88.9865C282.09 89.4471 281.33 90.1378 280.778 91.0589C280.225 91.9799 279.949 93.0851 279.949 94.3746V114.062H270.9Z" fill="black"/>
<path fill-rule="evenodd" clip-rule="evenodd" d="M333.98 112.542C336.697 114.016 339.806 114.752 343.306 114.752C346.023 114.752 348.533 114.269 350.835 113.302C353.184 112.335 355.164 110.907 356.776 109.019L351.457 103.7C350.444 104.851 349.247 105.726 347.865 106.325C346.483 106.878 344.941 107.154 343.237 107.154C341.349 107.154 339.691 106.762 338.263 105.98C336.836 105.151 335.73 103.999 334.947 102.526C334.653 101.918 334.417 101.271 334.241 100.583L358.641 100.522C358.825 99.7396 358.94 99.0488 358.986 98.4502C359.079 97.8054 359.125 97.1837 359.125 96.5851C359.125 93.4075 358.411 90.5753 356.983 88.0885C355.602 85.5557 353.667 83.5755 351.181 82.1479C348.74 80.6742 345.908 79.9374 342.684 79.9374C339.414 79.9374 336.444 80.7203 333.773 82.286C331.102 83.8057 328.984 85.8781 327.418 88.503C325.898 91.0819 325.138 94.0292 325.138 97.3449C325.138 100.707 325.921 103.7 327.487 106.325C329.099 108.95 331.263 111.022 333.98 112.542ZM334.249 93.8114C334.41 93.2007 334.62 92.6286 334.878 92.095C335.615 90.6214 336.651 89.4931 337.987 88.7102C339.322 87.8813 340.888 87.4668 342.684 87.4668C344.388 87.4668 345.816 87.8353 346.967 88.5721C348.164 89.2629 349.062 90.276 349.661 91.6115C349.971 92.2545 350.218 92.9722 350.4 93.7646L334.249 93.8114Z" fill="black"/>
<path fill-rule="evenodd" clip-rule="evenodd" d="M92.0307 134.123C115.244 134.123 134.061 115.305 134.061 92.0923C134.061 68.8793 115.244 50.0615 92.0307 50.0615C68.8178 50.0615 50 68.8793 50 92.0923C50 115.305 68.8178 134.123 92.0307 134.123ZM109.438 66.3662C109.937 66.7881 110.224 67.4082 110.224 68.0615L110.223 76.5058L110.224 77.0615L110.223 77.1279V105.395C110.223 110.304 106.243 114.284 101.334 114.284C96.4248 114.284 92.4453 110.304 92.4453 105.395C92.4453 100.486 96.4248 96.5058 101.334 96.5058C102.953 96.5058 104.471 96.9389 105.778 97.6953V79.6846L83.5557 83.3891V109.839C83.5557 114.749 79.5762 118.728 74.667 118.728C69.7578 118.728 65.7783 114.749 65.7783 109.839C65.7783 104.93 69.7578 100.95 74.667 100.95C76.2861 100.95 77.8047 101.383 79.1113 102.14L79.1123 81.5058L79.1113 80.9502L79.1123 80.8838V72.5058C79.1123 71.4199 79.8975 70.4927 80.9697 70.3139L107.636 65.8696C108.28 65.7622 108.939 65.9438 109.438 66.3662Z" fill="black"/>
</svg>
